<svg width="658" height="314" viewBox="0 0 658 314" fill="none" xmlns="http://www.w3.org/2000/svg">
<g clip-path="url(#clip0_1680_2893)">
<path d="M0.40278 180.939C37.6831 122.004 74.9682 63.0664 112.258 4.12515C112.392 3.8346 112.645 3.57765 112.988 3.38631C113.331 3.19496 113.747 3.07767 114.185 3.04903L657.295 0L657.943 69.1412L3.09237 185.174C0.891796 185.562 -0.819761 182.872 0.40278 180.939Z" fill="#F1F5F9"/>
<path d="M657.453 133.031L545.555 309.885C545.409 310.158 545.155 310.396 544.822 310.572C544.488 310.749 544.089 310.856 543.671 310.881L0.532149 309.885L0.532227 244.71L654.764 128.787C656.964 128.398 658.734 131.098 657.453 133.031Z" fill="#F1F5F9"/>
</g>
<defs>
<clipPath id="clip0_1680_2893">
<rect width="658" height="314" fill="white"/>
</clipPath>
</defs>
</svg>
