<svg width="51" height="51" viewBox="0 0 51 51" fill="none" xmlns="http://www.w3.org/2000/svg">
<mask id="mask0_2397_3070" style="mask-type:alpha" maskUnits="userSpaceOnUse" x="0" y="0" width="51" height="51">
<ellipse cx="25.105" cy="25.355" rx="25.105" ry="25.355" fill="#D9D9D9"/>
</mask>
<g mask="url(#mask0_2397_3070)">
<path d="M-12.0078 -3H61.9114V52H-12.0078V-3Z" fill="white"/>
<path d="M-12.0078 -3H61.9114V13.5H-12.0078V-3Z" fill="#000001"/>
<path d="M-12.0078 35.4999H61.9114V52H-12.0078V35.4999Z" fill="#006600"/>
<path d="M15.0422 40.8278L15.6658 41.1716L31.8472 13.3278C32.7828 13.1216 33.3025 12.2278 33.8222 11.3341C34.1687 10.7153 35.5547 8.34346 36.1438 5.24971C34.4999 6.69893 33.107 8.40599 32.0205 10.3028C31.5007 11.1966 30.981 12.0903 31.2235 13.0185L15.0422 40.8278Z" fill="black"/>
<path d="M15.0422 40.8278L15.6658 41.1716L31.8472 13.3278C32.7828 13.1216 33.3025 12.2278 33.8222 11.3341C34.1687 10.7153 35.5547 8.34346 36.1438 5.24971C34.4999 6.69893 33.107 8.40599 32.0205 10.3028C31.5007 11.1966 30.981 12.0903 31.2235 13.0185L15.0422 40.8278Z" fill="white"/>
<path d="M34.8614 40.8278L34.2377 41.1716L18.0564 13.3278C17.1208 13.1216 16.6011 12.2278 16.0813 11.3341C15.7348 10.7153 14.3489 8.34346 13.7598 5.24971C15.4037 6.69893 16.7966 8.40599 17.8831 10.3028C18.4029 11.1966 18.9226 12.0903 18.6801 13.0185L34.8614 40.8278Z" fill="black"/>
<path d="M34.8614 40.8278L34.2377 41.1716L18.0564 13.3278C17.1208 13.1216 16.6011 12.2278 16.0813 11.3341C15.7348 10.7153 14.3489 8.34346 13.7598 5.24971C15.4037 6.69893 16.7966 8.40599 17.8831 10.3028C18.4029 11.1966 18.9226 12.0903 18.6801 13.0185L34.8614 40.8278Z" fill="white"/>
<path d="M61.9692 16.2499H31.5353C30.4958 13.4999 27.0309 7.99986 24.9519 7.99986C22.8729 7.99986 19.408 13.4999 18.3685 16.2499H-12.0308V32.7499H18.3685C19.408 35.4999 22.8729 40.9999 24.9519 40.9999C27.0309 40.9999 30.4958 35.4999 31.5353 32.7499H61.9692V16.2499Z" fill="#BB0000"/>
<path d="M31.5353 32.7499C32.5748 29.9999 33.2678 27.2503 33.2678 24.5003C33.2678 21.7503 32.5748 18.9999 31.5353 16.2499C30.4958 18.9999 29.8029 21.7503 29.8029 24.5003C29.8029 27.2503 30.4958 29.9999 31.5353 32.7499Z" fill="black"/>
<path d="M18.3685 32.7499C17.329 29.9999 16.6357 27.2503 16.6357 24.5003C16.6357 21.7503 17.329 18.9999 18.3685 16.2499C19.408 18.9999 20.1007 21.7503 20.1007 24.5003C20.1007 27.2503 19.408 29.9999 18.3685 32.7499Z" fill="black"/>
<path d="M24.9518 26.5626C25.7172 26.5626 26.3378 25.6391 26.3378 24.5001C26.3378 23.361 25.7172 22.4376 24.9518 22.4376C24.1863 22.4376 23.5658 23.361 23.5658 24.5001C23.5658 25.6391 24.1863 26.5626 24.9518 26.5626Z" fill="white"/>
<path d="M25.2983 26.4938C25.2983 26.4938 26.6843 29.2438 26.6843 33.7126C26.6843 38.1813 25.2983 40.9313 25.2983 40.9313V26.4938Z" fill="white"/>
<path d="M24.6053 22.5063C24.6053 22.5063 23.2193 19.7563 23.2193 15.2876C23.2193 10.8188 24.6053 8.06881 24.6053 8.06881V22.5063Z" fill="white"/>
<path d="M24.6053 26.4938C24.6053 26.4938 23.2193 29.2438 23.2193 33.7126C23.2193 38.1813 24.6053 40.9313 24.6053 40.9313V26.4938Z" fill="white"/>
<path d="M25.2983 22.5063C25.2983 22.5063 26.6843 19.7563 26.6843 15.2876C26.6843 10.8188 25.2983 8.06881 25.2983 8.06881V22.5063Z" fill="white"/>
</g>
</svg>
