<svg width="27" height="27" viewBox="0 0 27 27" fill="none" xmlns="http://www.w3.org/2000/svg">
<mask id="mask0_1681_2994" style="mask-type:luminance" maskUnits="userSpaceOnUse" x="-1" y="-1" width="28" height="28">
<path d="M-1 -1H26.9957V26.9957H-1V-1Z" fill="white"/>
</mask>
<g mask="url(#mask0_1681_2994)">
<path fill-rule="evenodd" clip-rule="evenodd" d="M-7.99878 17.666H33.9948V22.3338H-7.99878V17.666Z" fill="#FFE700"/>
<path fill-rule="evenodd" clip-rule="evenodd" d="M-7.99878 12.998H33.9948V17.6659H-7.99878V12.998Z" fill="#000001"/>
<path fill-rule="evenodd" clip-rule="evenodd" d="M-7.99878 8.33594H33.9948V12.9981H-7.99878V8.33594Z" fill="#DE3908"/>
<path fill-rule="evenodd" clip-rule="evenodd" d="M-7.99878 3.66797H33.9948V8.3358H-7.99878V3.66797Z" fill="#FFE700"/>
<path fill-rule="evenodd" clip-rule="evenodd" d="M-7.99878 -1H33.9948V3.66783H-7.99878V-1Z" fill="#000001"/>
<path fill-rule="evenodd" clip-rule="evenodd" d="M17.3611 12.9979C17.3611 14.1543 16.9017 15.2634 16.084 16.0811C15.2663 16.8988 14.1572 17.3581 13.0008 17.3581C11.8444 17.3581 10.7354 16.8988 9.9177 16.0811C9.1 15.2634 8.64063 14.1543 8.64062 12.9979C8.64063 11.8415 9.1 10.7325 9.9177 9.91477C10.7354 9.09707 11.8444 8.6377 13.0008 8.6377C14.1572 8.6377 15.2663 9.09707 16.084 9.91477C16.9017 10.7325 17.3611 11.8415 17.3611 12.9979Z" fill="#FFFDFF" stroke="black" stroke-width="0.116111"/>
<path fill-rule="evenodd" clip-rule="evenodd" d="M12.2305 9.65649L11.9482 9.13722C12.0611 9.02433 12.2417 8.94531 12.5352 8.94531L12.507 9.50974L12.2305 9.65649Z" fill="#DE3108" stroke="black" stroke-width="0.116111"/>
<path fill-rule="evenodd" clip-rule="evenodd" d="M12.5068 9.52084L12.5407 8.94512C12.5407 8.94512 13.1277 8.91125 13.4438 9.28942L13.1334 9.74096L12.5068 9.52084Z" fill="#FFE700" stroke="black" stroke-width="0.116111"/>
<path fill-rule="evenodd" clip-rule="evenodd" d="M13.1448 9.73572L13.4326 9.28418C13.6245 9.48737 13.7036 9.63413 13.7374 9.84861C13.7374 9.8599 13.2802 9.9615 13.2802 9.9615L13.1448 9.73572Z" fill="#DE3108" stroke="black" stroke-width="0.116111"/>
<path fill-rule="evenodd" clip-rule="evenodd" d="M12.3772 17.1121C12.3772 17.1121 12.919 16.4912 13.9688 16.6211C13.8108 16.3671 13.2972 16.3953 13.2972 16.3953C13.2972 16.3953 13.1391 15.1874 13.2633 15.131C13.3875 15.0745 13.9124 15.131 13.9124 15.131C13.9858 15.131 14.1043 14.9447 14.0084 14.8262C13.9124 14.7076 13.6358 14.2505 13.7487 14.1601C13.8616 14.0698 14.4825 14.2109 14.4825 14.2109L12.7327 11.9645C12.7327 11.9645 12.5521 11.1179 12.9134 10.7171C13.3423 10.3559 13.2972 9.97208 13.2859 9.97772C13.2294 9.58262 12.6311 9.30041 12.2248 9.66164C11.9877 9.9495 12.1457 10.1696 12.1457 10.1696C12.1457 10.1696 11.5249 10.339 11.4966 10.4518C11.4741 10.5534 12.2022 10.4293 12.2022 10.4293L12.1344 10.926C12.1344 10.926 10.7121 12.2242 11.7958 13.3361C11.8127 13.3361 11.8353 13.2853 11.8353 13.2853C11.8353 13.2853 12.2191 13.7594 12.6199 13.861C12.998 14.2505 12.9585 14.1884 12.9585 14.1884C12.9585 14.1884 13.0375 14.798 12.9642 14.9221C12.567 14.8728 12.1656 14.869 11.7676 14.9108C11.6377 14.9503 11.1411 14.9278 11.2596 15.7349L11.4402 15.3229C11.4402 15.3229 11.4289 15.6164 11.5474 15.718C11.5249 15.4132 11.6603 15.2043 11.6603 15.2043C11.6603 15.2043 11.6829 15.543 11.7619 15.5882C11.8353 15.6446 11.8353 15.0463 12.2473 15.0915C12.6594 15.1479 12.9585 15.131 12.9585 15.131C12.9585 15.131 13.094 16.2937 13.0488 16.4066C12.7553 16.3332 12.0441 16.4348 11.999 16.6154C12.4167 16.5872 12.6086 16.638 12.6086 16.638C12.6086 16.638 12.2699 16.9371 12.3772 17.1121Z" fill="black" stroke="black" stroke-width="0.10321" stroke-linecap="round" stroke-linejoin="round"/>
<path fill-rule="evenodd" clip-rule="evenodd" d="M12.5464 10.7402C12.5464 10.7402 11.5079 11.8804 11.9538 12.7552C11.982 12.6311 11.9707 12.5577 11.982 12.5633C11.9594 12.5464 12.1118 12.6649 12.0949 12.6424C12.1062 12.5803 12.0554 12.4448 12.0554 12.4448L12.1908 12.4787L12.1118 12.3263L12.3094 12.3545C12.3094 12.3545 12.2416 12.1626 12.2642 12.1626L12.4279 12.1739C12.1344 11.649 12.411 11.2144 12.5408 10.7459L12.5464 10.7402Z" fill="#9CA69C" stroke="#9CA69C" stroke-width="0.10321" stroke-linecap="round" stroke-linejoin="round"/>
<path fill-rule="evenodd" clip-rule="evenodd" d="M12.902 9.76953C12.902 9.76953 12.9584 10.1646 12.7439 10.2775C12.7101 10.3001 12.5746 10.3452 12.5915 10.4243C12.6198 10.5315 12.6762 10.5089 12.7609 10.492C12.9866 10.4525 13.2463 9.97273 12.902 9.76953Z" fill="#9CA69C" stroke="#9CA69C" stroke-width="0.116111"/>
<path fill-rule="evenodd" clip-rule="evenodd" d="M12.5182 10.1022C12.5182 10.1247 12.5093 10.1462 12.4934 10.1621C12.4775 10.178 12.456 10.1869 12.4335 10.1869C12.4111 10.1869 12.3896 10.178 12.3737 10.1621C12.3578 10.1462 12.3489 10.1247 12.3489 10.1022C12.3489 10.0798 12.3578 10.0583 12.3737 10.0424C12.3896 10.0265 12.4111 10.0176 12.4335 10.0176C12.456 10.0176 12.4775 10.0265 12.4934 10.0424C12.5093 10.0583 12.5182 10.0798 12.5182 10.1022Z" fill="white"/>
<path fill-rule="evenodd" clip-rule="evenodd" d="M12.1852 10.4297C12.1288 10.4748 11.8466 10.774 12.1288 10.8812C12.4223 10.8022 12.3376 10.7514 12.4054 10.6837C12.4054 10.5539 12.2586 10.5144 12.1852 10.4297Z" fill="#DE3108" stroke="black" stroke-width="0.116111"/>
<path fill-rule="evenodd" clip-rule="evenodd" d="M12.8117 13.2461C12.7948 13.3138 12.7327 13.5509 12.823 13.7315C13.0714 13.6299 13.1842 13.6581 13.2689 13.7146C13.0657 13.5452 12.9867 13.4832 12.8117 13.2461Z" fill="#9CA69C" stroke="#9CA69C" stroke-width="0.10321" stroke-linecap="round" stroke-linejoin="round"/>
<path fill-rule="evenodd" clip-rule="evenodd" d="M13.2407 14.375L13.252 14.9281C13.252 14.9281 13.4496 14.9677 13.5342 14.9281C13.6245 14.8943 13.5342 14.5443 13.2407 14.375Z" fill="white" stroke="white" stroke-width="0.10321" stroke-linecap="round" stroke-linejoin="round"/>
<path fill-rule="evenodd" clip-rule="evenodd" d="M14.6462 14.4424C14.6462 14.4424 14.285 13.5788 13.3762 13.3587C12.4675 13.1386 12.5804 12.1734 12.6538 12.1113C12.6933 12.0266 12.7215 11.8968 12.9868 12.021C13.2521 12.1452 14.4599 12.7547 14.6349 12.783C14.8099 12.8112 14.6575 14.465 14.6462 14.4424Z" fill="#9CA69C" stroke="black" stroke-width="0.116111"/>
<path fill-rule="evenodd" clip-rule="evenodd" d="M13.777 13.3594C13.7601 13.365 14.9962 14.0875 14.6237 14.7084C14.9793 14.4769 14.8607 14.0649 14.8607 14.0649C14.8607 14.0649 15.1486 14.8156 14.4487 15.1825C14.5277 15.2502 14.5729 15.2333 14.5729 15.2333L14.46 15.3518C14.46 15.3518 14.4035 15.4421 14.872 15.2163C14.7422 15.3179 14.7309 15.3913 14.7309 15.3913C14.7309 15.3913 14.7704 15.4929 15.0752 15.222C14.9538 15.3414 14.851 15.4784 14.7704 15.6284C15.4477 15.5663 16.904 13.3876 14.3132 12.7441L14.4261 12.8683L13.777 13.3594Z" fill="#DE3108" stroke="black" stroke-width="0.10321" stroke-linejoin="round"/>
<path fill-rule="evenodd" clip-rule="evenodd" d="M13.8277 13.1446C13.9971 13.2575 14.0535 13.3026 14.0761 13.3591C13.9237 13.3252 13.7826 13.3365 13.7826 13.3365C13.7826 13.3365 13.4552 13.0204 13.3931 12.9978C13.348 12.9978 13.0883 12.8285 13.0883 12.8285C12.9585 12.7664 12.84 12.3205 13.3141 12.4503C13.8108 12.6817 13.8785 12.6987 13.8785 12.6987L14.4655 12.8849L14.8042 13.2631C14.8042 13.2631 14.2003 12.964 14.1269 12.9583C14.2962 13.0938 14.3865 13.2744 14.3865 13.2744C14.1946 13.218 14.0309 13.1728 13.8277 13.1446Z" fill="white" stroke="black" stroke-width="0.10321" stroke-linecap="round" stroke-linejoin="round"/>
<path d="M11.491 10.4748C11.491 10.4748 12.0667 10.3393 12.1344 10.3619" stroke="white" stroke-width="0.10321" stroke-linecap="round"/>
<path fill-rule="evenodd" clip-rule="evenodd" d="M-7.99878 22.334H33.9948V27.0018H-7.99878V22.334Z" fill="#DE3908"/>
</g>
</svg>
